<svg version="1.1" xmlns="http://www.w3.org/2000/svg" xmlns:xlink="http://www.w3.org/1999/xlink" viewBox="0 0 120 120" xml:space="preserve">
<g>
	<g>
		<path d="M96.872,37.956c6.726,10.305,10.188,22.551,10.261,34.83c0.06,9.826-1.872,20.31-7.147,28.746
			c-1.952,3.122-4.506,6.137-7.828,7.849c-1.623,0.835-3.921,1.521-5.505,0.224c-1.865-1.525-1.318-4.268-1.229-6.352
			c0.473-11.249-3-22.58-8.185-32.462c-2.729-5.205-6.03-10.125-9.888-14.565c-4.155-4.784-9.077-8.344-14.055-12.196
			c-5.569-4.311-11.307-8.535-16.27-13.556c-3.374-3.414-7.289-7.961-6.963-13.106c0.465-7.336,7.9-11.552,14.487-11.932
			c8.506-0.488,17.093,2.959,24.395,7.004C79.992,18.556,89.954,27.352,96.872,37.956C114.781,65.403,79.632,11.531,96.872,37.956z"
			/>
		<path d="M23.139,23.553c0.569,12.23,14.115,19.608,22.732,26.104c4.945,3.727,10.089,7.158,14.199,11.842
			c3.383,3.855,6.252,8.15,8.674,12.664c4.339,8.084,7.556,17.11,8.551,26.266c0.398,3.691,1.249,12.788-3.858,14.043
			c-1.512,0.371-3.295-0.086-4.795-0.322c-2.32-0.368-4.612-0.909-6.856-1.605c-4.86-1.506-9.481-3.744-13.748-6.51
			c-9.624-6.237-17.391-15.063-23.242-24.866c-6.71-11.243-11.508-24.085-11.905-37.281c-0.176-5.846,0.556-11.738,2.438-17.286
			c0.636-1.874,1.472-5.644,3.687-6.235C20.859,19.874,23.053,21.701,23.139,23.553C23.678,35.133,23.027,21.156,23.139,23.553z"/>
	</g>
</g>
</svg>
