
<svg xmlns="http://www.w3.org/2000/svg" xmlns:xlink="http://www.w3.org/1999/xlink" x="0px" y="0px"
	 width="120px" height="120px" viewBox="0 0 120 120" enable-background="new 0 0 120 120" xml:space="preserve">
<g>
	<g>
		<path fill="#231815" d="M55.366,27.106c3.242,6.894,4.317,14.7,3.313,22.235c-0.804,6.031-2.886,12.294-6.841,17.016
			c-1.463,1.747-3.288,3.378-5.472,4.144c-1.067,0.373-2.534,0.597-3.395-0.334c-1.014-1.095-0.443-2.729-0.211-4
			c1.252-6.858,0.091-14.103-2.242-20.605c-1.229-3.425-2.833-6.725-4.817-9.777c-2.14-3.289-4.853-5.893-7.575-8.681
			c-3.046-3.12-6.204-6.201-8.817-9.705c-1.777-2.382-3.789-5.505-3.149-8.632c0.913-4.458,5.833-6.408,9.904-6.077
			c5.258,0.428,10.228,3.276,14.36,6.381C46.673,13.767,52.03,20.012,55.366,27.106C64,45.468,47.052,9.428,55.366,27.106z"/>
		<path fill="#231815" d="M11.384,11.968c-0.697,7.548,6.979,13.231,11.707,17.951c2.713,2.708,5.575,5.252,7.694,8.476
			c1.745,2.653,3.136,5.532,4.236,8.507c1.969,5.328,3.169,11.139,2.997,16.837c-0.07,2.298-0.327,7.948-3.566,8.28
			c-0.96,0.099-2.015-0.334-2.914-0.607c-1.391-0.424-2.75-0.951-4.067-1.57c-2.852-1.34-5.493-3.106-7.873-5.168
			c-5.368-4.647-9.376-10.724-12.125-17.235C4.32,39.971,2.476,31.687,3.361,23.561c0.392-3.6,1.345-7.15,2.974-10.392
			c0.55-1.095,1.385-3.334,2.794-3.508C10.3,9.517,11.489,10.825,11.384,11.968C10.724,19.115,11.521,10.489,11.384,11.968z"/>
	</g>
	<g>
		<path fill="#231815" d="M63.519,69.376c5.038-10.646,15.006-19.042,26.397-22.11c4-1.077,8.568-1.638,12.567-0.246
			c1.985,0.691,5.386,2.868,3.119,5.157c-1.081,1.091-2.771,1.659-4.058,2.492c-1.51,0.978-2.937,2.082-4.281,3.276
			c-5.536,4.917-9.823,11.316-12.568,18.174c-2.967,7.412-2.97,15.251-4.07,23.053c-0.666,4.718-1.642,13.314-7.538,14.422
			c-4.151,0.78-7.79-1.469-10.017-4.853c-3.376-5.132-4.216-11.821-4.198-17.828C58.894,83.556,60.363,76.045,63.519,69.376
			C72.555,50.282,54.82,87.76,63.519,69.376z"/>
		<path fill="#231815" d="M80.477,114.734c5.391-3.669,5.785-11.11,6.294-16.992c0.339-3.914,0.537-7.892,1.09-11.78
			c0.488-3.433,1.715-6.781,3.205-9.897c2.696-5.639,6.506-10.869,11.117-15.096c2.316-2.124,6.657-6.1,10.204-5.13
			c1.983,0.542,2.634,3.529,3.198,5.176c1.178,3.431,1.752,7.053,1.808,10.675c0.126,8.24-2.372,16.357-6.28,23.552
			c-3.474,6.395-8.048,12.334-13.874,16.755c-2.561,1.942-5.364,3.579-8.363,4.744c-1.376,0.535-2.792,0.97-4.233,1.289
			c-1.183,0.263-3.145,0.924-4.27,0.24C79.187,117.547,79.407,115.462,80.477,114.734C86.654,110.53,79.199,115.604,80.477,114.734z
			"/>
	</g>
</g>
</svg>
