<?xml version="1.0" encoding="utf-8"?>
<!-- Generator: Adobe Illustrator 16.0.0, SVG Export Plug-In . SVG Version: 6.00 Build 0)  -->
<!DOCTYPE svg PUBLIC "-//W3C//DTD SVG 1.1//EN" "http://www.w3.org/Graphics/SVG/1.1/DTD/svg11.dtd">
<svg version="1.1" id="圖層_1" xmlns="http://www.w3.org/2000/svg" xmlns:xlink="http://www.w3.org/1999/xlink" x="0px" y="0px"
	 width="600px" height="120px" viewBox="0 0 600 120" enable-background="new 0 0 600 120" xml:space="preserve">
<g>
	<path d="M80.836,63.285h6.57c7.247,0,13.14-5.892,13.14-13.139s-5.893-13.14-13.14-13.14h-6.57V63.285z M2,30.437
		c0-3.633,2.936-6.569,6.569-6.569h65.697h13.14c14.515,0,26.278,11.764,26.278,26.279c0,14.515-11.763,26.279-26.278,26.279h-6.57
		c0,10.88-8.828,19.708-19.708,19.708H21.709C10.828,96.133,2,87.305,2,76.425V30.437z"/>
	<path d="M202.165,63.285h6.57c7.247,0,13.139-5.892,13.139-13.139s-5.892-13.14-13.139-13.14h-6.57V63.285z M123.329,30.437
		c0-3.633,2.936-6.569,6.569-6.569h65.697h13.14c14.515,0,26.278,11.764,26.278,26.279c0,14.515-11.763,26.279-26.278,26.279h-6.57
		c0,10.88-8.828,19.708-19.708,19.708h-39.418c-10.881,0-19.709-8.828-19.709-19.708V30.437z"/>
	<path d="M323.494,63.285h6.569c7.247,0,13.14-5.892,13.14-13.139s-5.893-13.14-13.14-13.14h-6.569V63.285z M244.658,30.437
		c0-3.633,2.936-6.569,6.57-6.569h65.697h13.139c14.515,0,26.278,11.764,26.278,26.279c0,14.515-11.764,26.279-26.278,26.279h-6.569
		c0,10.88-8.827,19.708-19.708,19.708h-39.419c-10.881,0-19.709-8.828-19.709-19.708V30.437z"/>
	<path d="M444.823,63.285h6.569c7.247,0,13.14-5.892,13.14-13.139s-5.893-13.14-13.14-13.14h-6.569V63.285z M365.987,30.437
		c0-3.633,2.936-6.569,6.569-6.569h65.697h13.139c14.515,0,26.278,11.764,26.278,26.279c0,14.515-11.764,26.279-26.278,26.279
		h-6.569c0,10.88-8.827,19.708-19.708,19.708h-39.419c-10.881,0-19.709-8.828-19.709-19.708V30.437z"/>
	<path d="M566.152,63.285h6.569c7.247,0,13.14-5.892,13.14-13.139s-5.893-13.14-13.14-13.14h-6.569V63.285z M487.316,30.437
		c0-3.633,2.936-6.569,6.569-6.569h65.696h13.14c14.515,0,26.278,11.764,26.278,26.279c0,14.515-11.764,26.279-26.278,26.279h-6.569
		c0,10.88-8.827,19.708-19.708,19.708h-39.419c-10.881,0-19.709-8.828-19.709-19.708V30.437z"/>
</g>
</svg>
