
<svg xmlns="http://www.w3.org/2000/svg" xmlns:xlink="http://www.w3.org/1999/xlink" viewBox="0 0 120 120" enable-background="new 0 0 120 120" xml:space="preserve">
<path d="M104.356,106.828c1.447,2.063,0.947,4.908-1.115,6.354c-1.031,0.725-2.258,0.962-3.408,0.76
	c-1.15-0.201-2.225-0.843-2.947-1.873l-6.891-9.819h11.148L104.356,106.828z M34.746,53.4c1.363,4.588,5.669,7.805,10.465,7.805
	c4.806,0,9.11-3.214,10.468-7.816c0.066-0.222,0.122-0.432,0.17-0.64l0.367-46.761h-9.938L34.457,52.125
	C34.53,52.565,34.627,52.992,34.746,53.4z M74.38,61.205c4.807,0,9.111-3.214,10.467-7.816c0.246-0.838,0.395-1.685,0.441-2.521
	L74.774,5.988h-10.66l-0.365,46.79c0.043,0.195,0.096,0.389,0.154,0.583C65.269,57.991,69.573,61.205,74.38,61.205z M25.742,54.317
	l0.684-2.668c0.016-0.136,0.03-0.273,0.041-0.411h0.065L38.125,5.988h-13.58L9.606,36.684L1.925,52.477l0.38,1.761
	c0.022,0.099,0.052,0.196,0.081,0.294c1.35,4.576,8.41,6.674,13.208,6.674C20.071,61.205,24.112,58.418,25.742,54.317z
	 M89.251,61.792c-3.5,4.494-8.967,7.312-14.871,7.312c-5.746,0-11.074-2.668-14.582-6.949c-3.505,4.277-8.838,6.949-14.587,6.949
	c-5.86,0-11.294-2.784-14.8-7.231c-3.499,4.441-8.939,7.231-14.816,7.231c-0.649,0-1.312-0.037-1.979-0.092v33.238h76.38l-1.963-2.8
	c-2.041,0.545-4.223,0.68-6.439,0.291c-8.145-1.427-13.59-9.188-12.16-17.333c1.428-8.145,9.188-13.59,17.334-12.162
	c8.145,1.43,13.588,9.188,12.16,17.334c-0.465,2.649-1.607,5.004-3.207,6.938l5.424,7.731h4.451V69.058
	c-0.5,0.027-0.994,0.046-1.48,0.046C98.22,69.104,92.755,66.286,89.251,61.792z M110.38,36.815L95.374,5.988h-12.49l11.57,49.376
	c1.861,3.518,5.584,5.84,9.66,5.84c4.807,0,12.104-1.884,13.459-6.486c0.051-0.182,0.104-0.402,0.156-0.623l0.346-1.458
	L110.38,36.815z M85.78,75.864c-5.033-0.883-9.848,2.494-10.73,7.529c-0.883,5.033,2.494,9.846,7.529,10.729
	c2.172,0.382,4.299-0.035,6.09-1.028c0.102-0.085,0.188-0.182,0.297-0.259c0.232-0.161,0.479-0.292,0.727-0.406
	c1.842-1.365,3.189-3.403,3.617-5.836C94.192,81.561,90.815,76.748,85.78,75.864z"/>
</svg>
